<?xml version="1.0" encoding="utf-8"?>
<!-- Generator: Adobe Illustrator 23.0.4, SVG Export Plug-In . SVG Version: 6.00 Build 0)  -->
<svg version="1.1" id="Layer_1" xmlns="http://www.w3.org/2000/svg" xmlns:xlink="http://www.w3.org/1999/xlink" x="0px" y="0px"
	 viewBox="0 0 104.4 72" style="enable-background:new 0 0 104.4 72;" xml:space="preserve">
<style type="text/css">
	.st0{fill:#FFFFFF;}
	.st1{fill:#0099D8;}
</style>
<g>
	<g>
		<path class="st0" d="M102.2,62.9c0,5-4.1,9.1-9.1,9.1H9.9c-5,0-9.1-4.1-9.1-9.1V9.1c0-5,4.1-9.1,9.1-9.1h83.2c5,0,9.1,4.1,9.1,9.1
			L102.2,62.9L102.2,62.9z"/>
		<polygon points="81,15.1 87.3,15.1 87.3,16.9 85.3,16.9 85.3,22 83.1,22 83.1,16.9 81,16.9 		"/>
		<path d="M39.1,19.1v1.3h1c0.6,0,1-0.1,1-0.6c0-0.6-0.5-0.6-1.2-0.6L39.1,19.1C39.1,19.1,39.1,19.1,39.1,19.1z M39.1,16.7v1.1h0.9
			c0.5,0,0.8-0.2,0.8-0.6c0-0.5-0.4-0.5-0.9-0.5L39.1,16.7L39.1,16.7z M36.9,22v-6.9h3.3c1.6,0,2.8,0.4,2.8,1.7
			c0,0.7-0.5,1.2-0.9,1.5c0.7,0.2,1.1,0.8,1.1,1.6c0,1.5-1.2,2.1-3,2.1L36.9,22L36.9,22z"/>
		<path d="M54.4,17.2l-0.7,2.5h1.4L54.4,17.2L54.4,17.2z M50.8,22l2.5-6.9h2.3l2.5,6.9h-2.3l-0.3-0.9h-2.3L53,22H50.8L50.8,22z"/>
		<path d="M68.5,18.1h0.9c0.7,0,1.1-0.2,1.1-0.6c0-0.5-0.4-0.7-0.9-0.7h-1.1V18.1L68.5,18.1z M68.5,19.6V22h-2.3v-6.9h3.3
			c2.3,0,3.1,0.6,3.1,2c0,0.8-0.4,1.5-1.2,1.7c0.7,0.3,1.2,0.4,1.2,1.8c0,0.9,0,1.2,0.2,1.2V22h-2.3c-0.1-0.2-0.1-0.6-0.1-1.2
			c0-0.9-0.2-1.2-1.2-1.2H68.5L68.5,19.6z"/>
		<path class="st1" d="M75.1,27.3c0,0,0,1.2,0,1.8c-2.5-1.4-5.7-2.2-9.5-2.1h-0.2c-2,0-8.6,0.3-13.2,4.1c3.2,2.6,5.3,6.4,5.3,11.5
			c0,5.3-2.4,8.8-5.4,11.1c1,0.9,2.1,1.7,3.4,2.4c3.9,2,8.2,2.2,9.8,2.2c2.7,0,5-0.2,9.8-2.6c0,0.5,0,1.7,0,1.7h12.2V27.3H75.1z
			 M66.4,50.7c-4.7,0-8.4-3.8-8.4-8.5c0-4.7,3.8-8.5,8.4-8.5s8.4,3.8,8.4,8.5C74.8,46.9,71.1,50.7,66.4,50.7z"/>
		<path d="M38.9,26.8c-7.7,0-9.8,1.9-10.9,2.5c0-2.4,0-14.6,0-14.6H16V57h11.6v-2c4,2.3,8.4,2.6,11.2,2.6c4.4,0,18.7-1.9,18.7-15.1
			C57.5,31.9,48.4,26.8,38.9,26.8z M38.9,50.7c-4.7,0-8.5-3.8-8.5-8.5c0-4.7,3.8-8.5,8.5-8.5c4.7,0,8.5,3.8,8.5,8.5
			C47.4,46.9,43.6,50.7,38.9,50.7z"/>
	</g>
</g>
</svg>
